<?xml version="1.0" encoding="UTF-8"?>
<svg id="Layer_2" data-name="Layer 2" xmlns="http://www.w3.org/2000/svg" viewBox="0 0 570.86 570.86">
  <defs>
    <style>
      .cls-1 {
        fill: #fff;
      }

      .cls-2 {
        fill: #141415;
      }
    </style>
  </defs>
  <g id="_1080_x_1080_px_Logo_4" data-name="1080 x 1080 px Logo 4">
    <g id="Graphic_Elements" data-name="Graphic Elements">
      <g>
        <circle class="cls-2" cx="285.43" cy="285.43" r="285.43"/>
        <path class="cls-1" d="M110.46,274.63c0-28.8,3.09-57.19,9.26-85.17,6.17-27.98,14.19-50.61,24.07-67.89l91.96,38.26c-9.47,16.05-16.88,34.66-22.22,55.85-5.35,21.19-8.02,41.86-8.02,62.02,0,16.87,1.44,28.28,4.32,34.25,2.87,5.96,6.79,8.95,11.73,8.95s8.53-3.5,10.8-10.49c2.26-7,4.01-16.26,5.25-27.77,1.23-11.52,2.78-24.18,4.63-37.96,1.85-13.79,4.63-27.68,8.33-41.66,3.7-13.99,9.26-26.75,16.66-38.26,7.41-11.52,17.38-20.78,29.93-27.77,12.55-7,28.49-10.49,47.83-10.49,21.39,0,40.73,6.48,58.01,19.44,17.28,12.96,31.17,32.3,41.66,58.01,10.49,25.71,15.74,57.49,15.74,95.35,0,24.69-2.27,49.37-6.79,74.06-4.53,24.69-11.52,45.87-20.98,63.57l-91.96-38.26c9.46-17.28,15.94-34.25,19.44-50.92,3.49-16.66,5.25-32.2,5.25-46.6,0-17.7-1.65-29.73-4.94-36.1-3.3-6.38-7-9.57-11.11-9.57-4.94,0-8.64,3.49-11.11,10.49-2.47,6.99-4.32,16.25-5.55,27.77-1.23,11.51-2.78,24.17-4.63,37.96-1.85,13.78-4.73,27.56-8.64,41.35-3.92,13.78-9.57,26.43-16.97,37.95-7.41,11.51-17.39,20.77-29.93,27.77-12.56,6.99-28.5,10.49-47.83,10.49s-38.99-6.38-56.47-19.13c-17.49-12.76-31.48-32.09-41.97-58.01-10.49-25.92-15.74-58.43-15.74-97.51Z"/>
      </g>
    </g>
  </g>
</svg>